<svg xmlns="http://www.w3.org/2000/svg" width="40" height="40" viewBox="0 0 512 512"><path fill="#fefefe" d="M0 0h512v512H0z"/><path fill="#5229be" d="M396.5 168.5c-1.62 5.034-4.62 9.201-9 12.5-12.856 6.925-25.523 14.092-38 21.5-.12-1.086-.787-1.753-2-2-34.229-11.465-68.563-22.632-103-33.5-14.545-3.778-28.879-3.112-43 2-14.05 7.02-27.716 14.52-41 22.5-11.558-3.131-22.891-6.964-34-11.5-6.982-4.815-11.316-11.315-13-19.5 1.181-5.355 3.848-9.855 8-13.5 18.84-10.587 37.84-20.921 57-31 27.445-11.827 55.778-14.493 85-8 40.543 12.737 80.876 26.07 121 40 6.977 5.126 10.977 11.959 12 20.5z"/><path fill="#6633ed" d="M113.5 160.5c1.684 8.185 6.018 14.685 13 19.5 11.109 4.536 22.442 8.369 34 11.5 24.268 8.256 48.601 16.423 73 24.5 40.605 11.757 79.272 7.257 116-13.5 12.477-7.408 25.144-14.575 38-21.5 4.382-3.299 7.382-7.466 9-12.5.167 21.669 0 43.336-.5 65-1.243 4.912-3.743 9.079-7.5 12.5-7.558 3.941-14.892 8.108-22 12.5-10.973 5.821-21.973 11.654-33 17.5-26.766 11.474-54.432 14.64-83 9.5-5.874-.969-11.541-2.303-17-4-29.927-9.988-59.927-19.988-90-30-15.042-1.751-24.875-9.751-29.5-24-.5-22.331-.667-44.664-.5-67z"/><path fill="#fdfdfe" d="M349.5 202.5c-36.728 20.757-75.395 25.257-116 13.5-24.399-8.077-48.732-16.244-73-24.5 13.284-7.98 26.95-15.48 41-22.5 14.121-5.112 28.455-5.778 43-2 34.437 10.868 68.771 22.035 103 33.5 1.213.247 1.88.914 2 2z"/><path fill="#5229be" d="M143.5 251.5c30.073 10.012 60.073 20.012 90 30-11.724-.54-23.057 1.294-34 5.5-13.779 6.543-26.779 14.043-39 22.5-12.265-3.81-24.265-8.31-36-13.5-6.075-4.87-9.741-11.037-11-18.5 1.42-4.673 3.753-8.84 7-12.5 7.73-4.526 15.396-9.026 23-13.5z"/><path fill="#532abe" d="M366.5 258.5c6.503 2.002 12.836 4.502 19 7.5 5.987 4.813 9.653 10.98 11 18.5-1.385 4.595-3.719 8.761-7 12.5-13.478 7.328-26.812 14.828-40 22.5-3.106-1.768-6.439-3.268-10-4.5-29.885-9.573-59.552-19.406-89-29.5 28.568 5.14 56.234 1.974 83-9.5 11.027-5.846 22.027-11.679 33-17.5z"/><path fill="#6633ee" d="M113.5 277.5c1.259 7.463 4.925 13.63 11 18.5 11.735 5.19 23.735 9.69 36 13.5 26.48 7.993 52.814 16.493 79 25.5 38.809 9.566 75.476 4.4 110-15.5 13.188-7.672 26.522-15.172 40-22.5 3.281-3.739 5.615-7.905 7-12.5.167 22.003 0 44.003-.5 66-1.428 5.35-4.261 9.85-8.5 13.5-14.667 8-29.333 16-44 24-33.473 17.559-68.473 21.559-105 12-37.889-12.074-75.555-24.741-113-38-6.22-4.274-10.053-10.108-11.5-17.5-.5-22.331-.667-44.664-.5-67z"/><path fill="#fdfdfe" d="M233.5 281.5c5.459 1.697 11.126 3.031 17 4 29.448 10.094 59.115 19.927 89 29.5 3.561 1.232 6.894 2.732 10 4.5-34.524 19.9-71.191 25.066-110 15.5-26.186-9.007-52.52-17.507-79-25.5 12.221-8.457 25.221-15.957 39-22.5 10.943-4.206 22.276-6.04 34-5.5z"/></svg>